<svg width="80" height="80" viewBox="0 0 80 80" fill="none" xmlns="http://www.w3.org/2000/svg">
<path d="M66.6643 39.9567H54.6176L56.4176 25.51C56.7436 24.0484 56.7371 22.5322 56.3987 21.0734C56.0602 19.6146 55.3985 18.2505 54.4623 17.0817C53.5261 15.9129 52.3394 14.9693 50.9897 14.3205C49.64 13.6717 48.1618 13.3344 46.6643 13.3333H38.7409L39.6076 6.62333H56.6643V0H33.7243L32.0076 13.3333H9.99761C8.50294 13.3318 7.02712 13.6669 5.67969 14.3138C4.33226 14.9607 3.14781 15.9027 2.21427 17.07C1.29752 18.1889 0.640751 19.4975 0.291415 20.9011C-0.0579218 22.3048 -0.091101 23.7686 0.194274 25.1867L7.06761 80L66.6643 79.9567C70.2005 79.9567 73.5919 78.5519 76.0924 76.0514C78.5928 73.5509 79.9976 70.1596 79.9976 66.6233V53.29C79.9976 49.7538 78.5928 46.3624 76.0924 43.8619C73.5919 41.3614 70.2005 39.9567 66.6643 39.9567ZM73.3309 53.29V56.6233H33.3309V53.29C33.3309 51.5219 34.0333 49.8262 35.2836 48.576C36.5338 47.3257 38.2295 46.6233 39.9976 46.6233H66.6643C68.4324 46.6233 70.1281 47.3257 71.3783 48.576C72.6286 49.8262 73.3309 51.5219 73.3309 53.29ZM46.6643 20C47.1637 19.998 47.657 20.1091 48.1073 20.325C48.5576 20.5409 48.9532 20.856 49.2643 21.2467C49.5993 21.6852 49.8279 22.1957 49.9321 22.7377C50.0362 23.2797 50.013 23.8385 49.8643 24.37L49.5743 26.6233H37.0243L37.8809 20H46.6643ZM7.41094 21.2467C7.72194 20.8592 8.11561 20.5462 8.56315 20.3305C9.0107 20.1148 9.5008 20.0019 9.99761 20H31.1509L30.2976 26.6233H7.07761L6.74427 24.0533C6.63638 23.5655 6.64031 23.0596 6.75576 22.5736C6.87122 22.0875 7.09521 21.6339 7.41094 21.2467ZM7.91761 33.29H48.7409L47.9043 39.9567H39.9976C36.4614 39.9567 33.07 41.3614 30.5695 43.8619C28.069 46.3624 26.6643 49.7538 26.6643 53.29V66.6233C26.6628 68.9813 27.2886 71.2971 28.4776 73.3333H12.9476L7.91761 33.29ZM66.6643 73.29H39.9976C38.2295 73.29 36.5338 72.5876 35.2836 71.3374C34.0333 70.0871 33.3309 68.3914 33.3309 66.6233V63.29H46.6643L56.6643 69.9567L66.6643 63.29H73.3309V66.6233C73.3309 68.3914 72.6286 70.0871 71.3783 71.3374C70.1281 72.5876 68.4324 73.29 66.6643 73.29Z" fill="#3074F7"/>
</svg>
