<svg width="80" height="60" viewBox="0 0 80 60" fill="none" xmlns="http://www.w3.org/2000/svg">
<path d="M63.3333 0H16.6667C12.248 0.00529286 8.01186 1.76294 4.8874 4.8874C1.76294 8.01186 0.00529286 12.248 0 16.6667L0 43.3333C0.00529286 47.752 1.76294 51.9881 4.8874 55.1126C8.01186 58.2371 12.248 59.9947 16.6667 60H63.3333C67.752 59.9947 71.9881 58.2371 75.1126 55.1126C78.2371 51.9881 79.9947 47.752 80 43.3333V16.6667C79.9947 12.248 78.2371 8.01186 75.1126 4.8874C71.9881 1.76294 67.752 0.00529286 63.3333 0ZM16.6667 6.66667H63.3333C65.9855 6.66667 68.529 7.72024 70.4044 9.5956C72.2798 11.471 73.3333 14.0145 73.3333 16.6667H6.66667C6.66667 14.0145 7.72024 11.471 9.5956 9.5956C11.471 7.72024 14.0145 6.66667 16.6667 6.66667ZM63.3333 53.3333H16.6667C14.0145 53.3333 11.471 52.2798 9.5956 50.4044C7.72024 48.529 6.66667 45.9855 6.66667 43.3333V23.3333H73.3333V43.3333C73.3333 45.9855 72.2798 48.529 70.4044 50.4044C68.529 52.2798 65.9855 53.3333 63.3333 53.3333Z" fill="#3074F7"/>
</svg>
