<svg width="80" height="74" viewBox="0 0 80 74" fill="none" xmlns="http://www.w3.org/2000/svg">
<path d="M63.3333 13.6666H53.3333V10.3333C53.3333 7.68115 52.2798 5.13761 50.4044 3.26225C48.529 1.38688 45.9855 0.333313 43.3333 0.333313H36.6667C34.0145 0.333313 31.471 1.38688 29.5956 3.26225C27.7202 5.13761 26.6667 7.68115 26.6667 10.3333V13.6666H16.6667C12.248 13.6719 8.01186 15.4296 4.8874 18.554C1.76294 21.6785 0.00529286 25.9147 0 30.3333L0 57C0.00529286 61.4186 1.76294 65.6548 4.8874 68.7793C8.01186 71.9037 12.248 73.6614 16.6667 73.6666H63.3333C67.752 73.6614 71.9881 71.9037 75.1126 68.7793C78.2371 65.6548 79.9947 61.4186 80 57V30.3333C79.9947 25.9147 78.2371 21.6785 75.1126 18.554C71.9881 15.4296 67.752 13.6719 63.3333 13.6666ZM33.3333 10.3333C33.3333 9.44926 33.6845 8.60141 34.3096 7.97629C34.9348 7.35117 35.7826 6.99998 36.6667 6.99998H43.3333C44.2174 6.99998 45.0652 7.35117 45.6904 7.97629C46.3155 8.60141 46.6667 9.44926 46.6667 10.3333V13.6666H33.3333V10.3333ZM73.3333 57C73.3333 59.6521 72.2798 62.1957 70.4044 64.0711C68.529 65.9464 65.9855 67 63.3333 67H16.6667C14.0145 67 11.471 65.9464 9.5956 64.0711C7.72024 62.1957 6.66667 59.6521 6.66667 57V30.3333C6.66667 27.6811 7.72024 25.1376 9.5956 23.2622C11.471 21.3869 14.0145 20.3333 16.6667 20.3333H63.3333C65.9855 20.3333 68.529 21.3869 70.4044 23.2622C72.2798 25.1376 73.3333 27.6811 73.3333 30.3333V57ZM53.3333 43.6666C53.3333 44.5507 52.9821 45.3985 52.357 46.0237C51.7319 46.6488 50.8841 47 50 47H43.3333V53.6666C43.3333 54.5507 42.9821 55.3986 42.357 56.0237C41.7319 56.6488 40.8841 57 40 57C39.1159 57 38.2681 56.6488 37.643 56.0237C37.0179 55.3986 36.6667 54.5507 36.6667 53.6666V47H30C29.1159 47 28.2681 46.6488 27.643 46.0237C27.0179 45.3985 26.6667 44.5507 26.6667 43.6666C26.6667 42.7826 27.0179 41.9347 27.643 41.3096C28.2681 40.6845 29.1159 40.3333 30 40.3333H36.6667V33.6666C36.6667 32.7826 37.0179 31.9347 37.643 31.3096C38.2681 30.6845 39.1159 30.3333 40 30.3333C40.8841 30.3333 41.7319 30.6845 42.357 31.3096C42.9821 31.9347 43.3333 32.7826 43.3333 33.6666V40.3333H50C50.8841 40.3333 51.7319 40.6845 52.357 41.3096C52.9821 41.9347 53.3333 42.7826 53.3333 43.6666Z" fill="#3074F7"/>
</svg>
