<svg width="80" height="80" viewBox="0 0 80 80" fill="none" xmlns="http://www.w3.org/2000/svg">
<path d="M31.8433 47.99C34.0933 50.19 37.0467 51.29 40 51.29C42.9533 51.29 45.9067 50.19 48.1567 47.99L56.4967 39.83C60.9033 35.4234 63.3333 29.5634 63.3333 23.33C63.3333 17.0967 60.9033 11.24 56.4967 6.83004C52.0933 2.42337 46.2333 -0.0032959 40 -0.0032959C33.7667 -0.0032959 27.9067 2.42337 23.5 6.83004C14.4033 15.9267 14.4033 30.73 23.5267 39.8534L31.8433 47.9867V47.99ZM28.2133 11.5467C31.36 8.40004 35.5467 6.6667 40 6.6667C44.4533 6.6667 48.6367 8.40004 51.7833 11.5467C54.93 14.6934 56.6667 18.88 56.6667 23.3334C56.6667 27.7867 54.93 31.97 51.81 35.0934L43.4967 43.2267C41.57 45.1067 38.43 45.1067 36.5033 43.2267L28.2133 35.12C21.7167 28.62 21.7167 18.0434 28.2133 11.5467ZM30 23.3C30 17.7767 34.4767 13.3 40 13.3C45.5233 13.3 50 17.7767 50 23.3C50 28.8234 45.5233 33.3 40 33.3C34.4767 33.3 30 28.8234 30 23.3ZM80 55.89C80 57.0634 79.3833 58.1467 78.3833 58.7467L45.5133 78.47C43.8133 79.49 41.9067 80 40.0033 80C38.1 80 36.19 79.49 34.4933 78.47L1.61667 58.75C0.613333 58.1467 0 57.0634 0 55.8934C0 54.7234 0.616667 53.6367 1.61667 53.0367L15.7133 44.58C17.2967 43.63 19.3433 44.1434 20.2867 45.7234C21.2333 47.3034 20.7233 49.35 19.1433 50.2967L9.81 55.8967L37.92 72.7634C39.2033 73.53 40.7967 73.53 42.08 72.7634L70.19 55.8967L60.8567 50.2967C59.2767 49.35 58.7667 47.3034 59.7133 45.7234C60.66 44.1434 62.7033 43.63 64.2867 44.58L78.3833 53.0367C79.3867 53.64 80 54.72 80 55.89Z" fill="#3074F7"/>
</svg>
