<svg width="74" height="80" viewBox="0 0 74 80" fill="none" xmlns="http://www.w3.org/2000/svg">
<path d="M70.7334 35.0133C68.36 31.5767 67 28.5367 67 26.6667V16.8833C67 8.34 60.6334 1.22 52.19 0.32C52.0034 0.3 49.5667 0 47 0H27C24.6934 0 22 0.3 21.81 0.32C13.3667 1.22 7.00004 8.34 7.00004 16.8833V26.6667C7.00004 28.5367 5.64004 31.5767 3.26671 35.0133C1.34671 37.79 0.333374 41.05 0.333374 44.4467V63.3333C0.333374 72.5233 7.81004 80 17 80H57C66.19 80 73.6667 72.5233 73.6667 63.3333V44.4467C73.6667 41.05 72.6534 37.7867 70.7334 35.0133ZM37 30.2467L28.4234 6.66667H45.5734L36.9967 30.2467H37ZM7.00004 63.3333V56.6667H20.3334C22.1767 56.6667 23.6667 55.1733 23.6667 53.3333C23.6667 51.4933 22.1767 50 20.3334 50H7.00004V44.4467C7.00004 42.41 7.60671 40.46 8.74671 38.8033C12.01 34.08 13.6667 29.9967 13.6667 26.6667V16.8833C13.6667 12.11 16.9667 8.08 21.4967 7.11333L33.6667 40.5833V73.3333H17C11.4867 73.3333 7.00004 68.8467 7.00004 63.3333ZM57 73.3333H40.3334V40.5833L52.5034 7.11333C57.0334 8.08 60.3334 12.1133 60.3334 16.8833V26.6667C60.3334 29.9967 61.9867 34.08 65.2534 38.8033C66.3967 40.46 67 42.4133 67 44.4467V50H53.6667C51.8234 50 50.3334 51.4933 50.3334 53.3333C50.3334 55.1733 51.8234 56.6667 53.6667 56.6667H67V63.3333C67 68.8467 62.5134 73.3333 57 73.3333Z" fill="#3074F7"/>
</svg>
